# helicopter.obj
# Modelo 3D simple de helicoptero sin helice principal.
# El centro de la helice está pensado en (0.0, 0.95, 0.0).

# Cuerpo rectangular
v -1.2 -0.35 -0.45
v  1.2 -0.35 -0.45
v  1.2  0.35 -0.45
v -1.2  0.35 -0.45
v -1.2 -0.35  0.45
v  1.2 -0.35  0.45
v  1.2  0.35  0.45
v -1.2  0.35  0.45

# Cabina frontal
v 1.2 -0.28 -0.38
v 1.75 -0.18 -0.30
v 1.75  0.18 -0.30
v 1.2  0.28 -0.38
v 1.2 -0.28  0.38
v 1.75 -0.18  0.30
v 1.75  0.18  0.30
v 1.2  0.28  0.38

# Cola
v -1.2 -0.12 -0.12
v -2.6 -0.08 -0.08
v -2.6  0.08 -0.08
v -1.2  0.12 -0.12
v -1.2 -0.12  0.12
v -2.6 -0.08  0.08
v -2.6  0.08  0.08
v -1.2  0.12  0.12

# Estabilizador vertical de cola
v -2.6 0.08 -0.05
v -3.0 0.08 -0.05
v -2.8 0.55 -0.05
v -2.6 0.08  0.05
v -3.0 0.08  0.05
v -2.8 0.55  0.05

# Patines
v -0.9 -0.65 -0.75
v  0.9 -0.65 -0.75
v  0.9 -0.58 -0.75
v -0.9 -0.58 -0.75
v -0.9 -0.65  0.75
v  0.9 -0.65  0.75
v  0.9 -0.58  0.75
v -0.9 -0.58  0.75

# Soportes patines
v -0.5 -0.35 -0.35
v -0.5 -0.65 -0.75
v -0.4 -0.65 -0.75
v -0.4 -0.35 -0.35
v  0.5 -0.35 -0.35
v  0.5 -0.65 -0.75
v  0.6 -0.65 -0.75
v  0.6 -0.35 -0.35
v -0.5 -0.35  0.35
v -0.5 -0.65  0.75
v -0.4 -0.65  0.75
v -0.4 -0.35  0.35
v  0.5 -0.35  0.35
v  0.5 -0.65  0.75
v  0.6 -0.65  0.75
v  0.6 -0.35  0.35

# Cuerpo faces
f 1 2 3
f 1 3 4
f 5 8 7
f 5 7 6
f 1 5 6
f 1 6 2
f 4 3 7
f 4 7 8
f 1 4 8
f 1 8 5
f 2 6 7
f 2 7 3

# Cabina faces
f 9 10 11
f 9 11 12
f 13 16 15
f 13 15 14
f 9 13 14
f 9 14 10
f 12 11 15
f 12 15 16
f 10 14 15
f 10 15 11

# Cola faces
f 17 18 19
f 17 19 20
f 21 24 23
f 21 23 22
f 17 21 22
f 17 22 18
f 20 19 23
f 20 23 24
f 18 22 23
f 18 23 19

# Estabilizador vertical
f 25 26 27
f 28 30 29
f 25 28 29
f 25 29 26
f 26 29 30
f 26 30 27
f 27 30 28
f 27 28 25

# Patines
f 31 32 33
f 31 33 34
f 35 38 37
f 35 37 36

# Soportes patines
f 39 40 41
f 39 41 42
f 43 44 45
f 43 45 46
f 47 48 49
f 47 49 50
f 51 52 53
f 51 53 54
